<svg width="200" height="200" viewBox="0 0 200 200" fill="none" xmlns="http://www.w3.org/2000/svg">
<g clip-path="url(#clip0_205_704)">
<path d="M71.0395 2.44141e-05L116.983 34.0684L70.3434 75.3684C69.8082 75.2438 69.3414 74.95 68.991 74.5555C68.6008 74.1008 68.3594 73.5133 68.3594 72.8653V2.56331C68.3594 1.80666 68.6895 1.12659 69.2125 0.65979C69.6672 0.249243 70.2668 -0.000366211 70.9227 -0.000366211H71.0395V2.44141e-05Z" fill="#FCA863"/>
<path d="M179.209 2.56328V72.8652C179.209 73.5129 178.967 74.1008 178.577 74.5555C178.227 74.95 177.76 75.2437 177.225 75.3684L130.585 34.0684L176.529 0H176.646C177.306 0 177.901 0.249609 178.356 0.660156C178.879 1.12695 179.209 1.80703 179.209 2.56328Z" fill="#FCA863"/>
<path d="M71.0395 2.4414e-05L116.983 34.0684L108.114 41.9235L68.3594 12.4426V2.56331C68.3594 1.80666 68.6895 1.12659 69.2125 0.65979C69.6672 0.249243 70.2668 -0.000366211 70.9227 -0.000366211H71.0395V2.4414e-05Z" fill="#FC9744"/>
<path d="M179.208 2.56328V72.8652C179.208 73.5129 178.967 74.1008 178.577 74.5555C178.227 74.95 177.76 75.2437 177.225 75.3684L164.142 63.7828V33.2879C164.142 29.2879 159.587 26.9941 156.372 29.3766L139.454 41.9238L130.585 34.0688L176.528 0H176.645C177.305 0 177.901 0.249609 178.355 0.660156C178.878 1.12695 179.208 1.80703 179.208 2.56328Z" fill="#FC9744"/>
<path d="M178.576 74.5524C178.106 75.0911 177.414 75.4321 176.644 75.4321H70.9244C70.1549 75.4321 69.4627 75.0911 68.9932 74.5524L123.785 26.0344L178.576 74.5524Z" fill="#FB8627"/>
<path d="M140.691 41.0059L132.781 46.8711C130.158 48.8113 127.046 49.8387 123.784 49.8387C120.522 49.8387 117.41 48.8113 114.787 46.8711L106.876 41.0059L123.783 26.034L140.691 41.0059Z" fill="#FB7722"/>
<path d="M178.355 0.657068L126.84 38.8567C125.025 40.2024 122.544 40.2024 120.729 38.8567L69.2134 0.657068C69.6673 0.249255 70.2673 0.000427246 70.9239 0.000427246H176.645C177.301 0.000427246 177.901 0.249255 178.355 0.657068Z" fill="#FEE265"/>
<path d="M117.697 60.0067H129.871" stroke="black" stroke-width="15" stroke-miterlimit="10" stroke-linecap="round" stroke-linejoin="round"/>
<path d="M28.645 49.4004L74.5888 83.4688L27.9489 124.769C27.4138 124.644 26.9431 124.35 26.597 123.956C26.2024 123.501 25.9653 122.914 25.9653 122.266V51.9637C25.9653 51.2031 26.2915 50.527 26.8185 50.0563C27.2692 49.65 27.8688 49.4004 28.5286 49.4004H28.645Z" fill="#FCA863"/>
<path d="M136.81 51.9637V122.266C136.81 122.914 136.573 123.501 136.179 123.956C135.833 124.35 135.362 124.644 134.826 124.769L88.1865 83.4688L134.13 49.4004H134.247C134.907 49.4004 135.506 49.65 135.962 50.0563C136.484 50.5273 136.81 51.2031 136.81 51.9637Z" fill="#FCA863"/>
<path d="M28.645 49.4004L74.5888 83.4688L65.7196 91.3238L25.9653 61.843V51.9637C25.9653 51.2031 26.2915 50.527 26.8185 50.0563C27.2692 49.65 27.8688 49.4004 28.5286 49.4004H28.645Z" fill="#FC9744"/>
<path d="M136.81 51.9637V122.266C136.81 122.914 136.573 123.501 136.179 123.956C135.833 124.35 135.362 124.644 134.826 124.769L121.744 113.183V82.6883C121.744 78.6883 117.188 76.3946 113.977 78.777L97.0557 91.3243L88.1865 83.4692L134.13 49.4008H134.247C134.907 49.4008 135.506 49.6504 135.962 50.0567C136.484 50.5274 136.81 51.2032 136.81 51.9637Z" fill="#FC9744"/>
<path d="M136.179 123.952C135.71 124.491 135.018 124.832 134.248 124.832H28.5279C27.7584 124.832 27.0662 124.491 26.5967 123.952L81.3881 75.4336L136.179 123.952Z" fill="#FB8627"/>
<path d="M98.2949 90.4055L90.3852 96.2707C87.7617 98.2109 84.6496 99.2383 81.3879 99.2383C78.1262 99.2383 75.0141 98.2109 72.3906 96.2707L64.4805 90.4055L81.3875 75.4336L98.2949 90.4055Z" fill="#FB7722"/>
<path d="M135.959 50.0567L84.4431 88.2563C82.6286 89.602 80.1474 89.602 78.3325 88.2563L26.8169 50.0567C27.2708 49.6489 27.8708 49.4 28.5274 49.4H134.248C134.905 49.4 135.505 49.6489 135.959 50.0567Z" fill="#FEE265"/>
<path d="M75.3008 109.406H87.475" stroke="black" stroke-width="15" stroke-miterlimit="10" stroke-linecap="round" stroke-linejoin="round"/>
<path d="M47.5668 98.8008L93.5066 132.865L46.8664 174.169C46.3312 174.04 45.8645 173.751 45.5145 173.356C45.1242 172.902 44.8828 172.314 44.8828 171.666V101.364C44.8828 100.604 45.2129 99.9273 45.7359 99.4566C46.1906 99.0504 46.7863 98.8008 47.4461 98.8008H47.5668Z" fill="#FCA863"/>
<path d="M155.732 101.364V171.666C155.732 172.314 155.49 172.901 155.1 173.356C154.75 173.75 154.283 174.04 153.748 174.169L107.108 132.865L153.047 98.8008H153.168C153.824 98.8008 154.424 99.0504 154.878 99.4566C155.402 99.9277 155.732 100.604 155.732 101.364Z" fill="#FCA863"/>
<path d="M47.5668 98.8008L93.5066 132.865L84.6375 140.72L44.8828 111.243V101.364C44.8828 100.604 45.2129 99.9273 45.7359 99.4566C46.1906 99.0504 46.7863 98.8008 47.4461 98.8008H47.5668Z" fill="#FC9744"/>
<path d="M155.732 101.364V171.666C155.732 172.314 155.49 172.901 155.1 173.356C154.75 173.75 154.283 174.04 153.748 174.169L140.666 162.583V132.088C140.666 128.088 136.11 125.795 132.895 128.177L115.978 140.72L107.108 132.865L153.048 98.8008H153.169C153.824 98.8008 154.424 99.0504 154.879 99.4566C155.402 99.9277 155.732 100.604 155.732 101.364Z" fill="#FC9744"/>
<path d="M155.098 173.352C154.629 173.89 153.937 174.231 153.167 174.231H47.4469C46.6773 174.231 45.9852 173.89 45.5156 173.352L100.307 124.833L155.098 173.352Z" fill="#FB8627"/>
<path d="M117.214 139.805L109.304 145.67C106.681 147.611 103.569 148.638 100.307 148.638C97.0451 148.638 93.933 147.611 91.3096 145.67L83.3994 139.805L100.306 124.833L117.214 139.805Z" fill="#FB7722"/>
<path d="M154.878 99.4563L103.363 137.656C101.548 139.002 99.0668 139.002 97.252 137.656L45.7363 99.4563C46.1902 99.0484 46.7902 98.7996 47.4469 98.7996H153.167C153.824 98.7996 154.424 99.0484 154.878 99.4563Z" fill="#FEE265"/>
<path d="M106.395 161.824H94.2201C92.5529 161.824 91.2021 160.473 91.2021 158.806C91.2021 157.139 92.5533 155.788 94.2201 155.788H106.395C108.062 155.788 109.413 157.139 109.413 158.806C109.413 160.473 108.062 161.824 106.395 161.824Z" fill="#FEE265"/>
<path d="M174.317 174.336V184.759C174.317 185.871 173.416 186.772 172.305 186.772H28.3104C27.199 186.772 26.2982 185.871 26.2982 184.759V174.336C26.2982 172.289 24.6389 170.629 22.592 170.629H16.7756C14.7287 170.629 13.0693 172.289 13.0693 174.336V196.294C13.0693 198.341 14.7287 200 16.7756 200H183.839C185.886 200 187.545 198.341 187.545 196.294V174.336C187.545 172.289 185.886 170.629 183.839 170.629H178.022C175.976 170.629 174.317 172.289 174.317 174.336Z" fill="#FB4A59"/>
<path d="M193.907 75.852L175.028 94.7313C174.01 95.7496 172.36 95.7496 171.342 94.7313L152.458 75.852C150.817 74.2114 151.982 71.402 154.306 71.402H159.077C160.188 71.402 161.089 70.5012 161.089 69.3899V57.9801C161.089 56.5403 162.256 55.3735 163.696 55.3735H182.669C184.112 55.3735 185.276 56.5426 185.276 57.9801V69.3899C185.276 70.5012 186.176 71.402 187.288 71.402H192.064C194.388 71.402 195.548 74.2114 193.907 75.852Z" fill="#27D1B3"/>
<path d="M193.909 75.8512L175.028 94.7324C174.01 95.7504 172.359 95.7504 171.342 94.7324L166.923 90.3141L181.382 75.8512C183.024 74.2133 181.865 71.4004 179.539 71.4004H172.75V57.9797C172.75 56.543 171.587 55.3719 170.147 55.3719H182.67C184.11 55.3719 185.278 56.543 185.278 57.9797V69.3883C185.278 70.4996 186.178 71.4004 187.29 71.4004H192.066C194.388 71.4004 195.547 74.2133 193.909 75.8512Z" fill="#20B69F"/>
<path d="M47.5411 41.684L28.6618 60.5633C27.6434 61.5816 25.9938 61.5816 24.9755 60.5633L6.09148 41.684C4.45085 40.0433 5.6153 37.234 7.93952 37.234H12.711C13.8223 37.234 14.7231 36.3332 14.7231 35.2219V23.8121C14.7231 22.3722 15.8903 21.2054 17.3298 21.2054H36.3032C37.7458 21.2054 38.9098 22.3746 38.9098 23.8121V35.2219C38.9098 36.3332 39.8106 37.234 40.9219 37.234H45.6977C48.0219 37.234 49.1817 40.0433 47.5411 41.684Z" fill="#27D1B3"/>
<path d="M47.5427 41.682L28.6614 60.5633C27.6435 61.5813 25.9931 61.5813 24.9755 60.5633L20.5571 56.1449L35.0157 41.682C36.6575 40.0441 35.4985 37.2355 33.1728 37.2355H26.3837V23.8109C26.3837 22.3742 25.2208 21.2031 23.7802 21.2031H36.3032C37.7438 21.2031 38.911 22.3742 38.911 23.8109V35.2234C38.911 36.3348 39.8118 37.2355 40.9231 37.2355H45.6997C48.0216 37.2355 49.1806 40.0441 47.5427 41.682Z" fill="#20B69F"/>
</g>
<defs>
<clipPath id="clip0_205_704">
<rect width="200" height="200" fill="white"/>
</clipPath>
</defs>
</svg>
