<?xml version="1.0" encoding="utf-8"?>
<svg xmlns="http://www.w3.org/2000/svg" viewBox="0 0 48 48" width="144" height="144">
  <path d="M9.5 6C7.0324991 6 5 8.0324991 5 10.5L5 37.5C5 39.967501 7.0324991 42 9.5 42L15.5 42C16.65797 42 17.698737 41.525058 18.5 40.794922C19.301263 41.525058 20.34203 42 21.5 42L26.5 42C27.65797 42 28.698737 41.525058 29.5 40.794922C30.301263 41.525058 31.34203 42 32.5 42L38.5 42C40.967501 42 43 39.967501 43 37.5L43 10.5C43 8.0324991 40.967501 6 38.5 6L32.5 6C30.032499 6 28 8.0324991 28 10.5L28 12.306641C27.52552 12.134564 27.030591 12 26.5 12L21.5 12C20.969409 12 20.47448 12.134564 20 12.306641L20 10.5C20 8.0324991 17.967501 6 15.5 6L9.5 6 z M 9.5 9L15.5 9C16.346499 9 17 9.6535009 17 10.5L17 16.5L17 37.5C17 38.346499 16.346499 39 15.5 39L9.5 39C8.6535009 39 8 38.346499 8 37.5L8 10.5C8 9.6535009 8.6535009 9 9.5 9 z M 32.5 9L38.5 9C39.346499 9 40 9.6535009 40 10.5L40 37.5C40 38.346499 39.346499 39 38.5 39L32.5 39C31.653501 39 31 38.346499 31 37.5L31 16.5L31 10.5C31 9.6535009 31.653501 9 32.5 9 z M 12.476562 11.978516 A 1.50015 1.50015 0 0 0 11 13.5L11 27.5 A 1.50015 1.50015 0 1 0 14 27.5L14 13.5 A 1.50015 1.50015 0 0 0 12.476562 11.978516 z M 35.476562 11.978516 A 1.50015 1.50015 0 0 0 34 13.5L34 27.5 A 1.50015 1.50015 0 1 0 37 27.5L37 13.5 A 1.50015 1.50015 0 0 0 35.476562 11.978516 z M 21.5 15L26.5 15C27.346499 15 28 15.653501 28 16.5L28 37.5C28 38.346499 27.346499 39 26.5 39L21.5 39C20.653501 39 20 38.346499 20 37.5L20 16.5C20 15.653501 20.653501 15 21.5 15 z M 23.5 18 A 1.50015 1.50015 0 1 0 23.5 21L24.5 21 A 1.50015 1.50015 0 1 0 24.5 18L23.5 18 z M 11.5 33 A 1.50015 1.50015 0 1 0 11.5 36L13.5 36 A 1.50015 1.50015 0 1 0 13.5 33L11.5 33 z M 23.5 33 A 1.50015 1.50015 0 1 0 23.5 36L24.5 36 A 1.50015 1.50015 0 1 0 24.5 33L23.5 33 z M 34.5 33 A 1.50015 1.50015 0 1 0 34.5 36L36.5 36 A 1.50015 1.50015 0 1 0 36.5 33L34.5 33 z" fill="#FFFFFF" />
</svg>