<?xml version="1.0" encoding="utf-8"?>
<svg xmlns="http://www.w3.org/2000/svg" viewBox="0 0 48 48" width="144" height="144">
  <path d="M20 4C14.494917 4 10 8.494921 10 14C10 19.505079 14.494917 24 20 24C25.505083 24 30 19.505079 30 14C30 8.494921 25.505083 4 20 4 z M 40.5 4 A 2.5 2.5 0 0 0 40.5 9 A 2.5 2.5 0 0 0 40.5 4 z M 20 7C23.883764 7 27 10.116238 27 14C27 17.883762 23.883764 21 20 21C16.116236 21 13 17.883762 13 14C13 10.116238 16.116236 7 20 7 z M 38.5 11 A 1.50015 1.50015 0 1 0 38.5 14L39 14L39 23L38.5 23 A 1.50015 1.50015 0 1 0 38.5 26L42.5 26 A 1.50015 1.50015 0 1 0 42.5 23L42 23L42 14L42.5 14 A 1.50015 1.50015 0 1 0 42.5 11L38.5 11 z M 7.9785156 28C5.7987048 28 4 29.798705 4 31.978516L4 33.5C4 37.104167 6.2792701 39.892227 9.3066406 41.5625C12.334011 43.232773 16.168103 44 20 44C23.831897 44 27.665989 43.232773 30.693359 41.5625C33.274641 40.138345 35.217335 37.862616 35.761719 35L36.001953 35L36.001953 31.978516C36.001953 29.798705 34.201295 28 32.021484 28L7.9785156 28 z M 7.9785156 31L32.021484 31C32.579674 31 33.001953 31.420326 33.001953 31.978516L33.001953 32L33 32L33 33.5C33 35.895833 31.65427 37.607773 29.244141 38.9375C26.834011 40.267227 23.418103 41 20 41C16.581897 41 13.165989 40.267227 10.755859 38.9375C8.3457303 37.607773 7 35.895833 7 33.5L7 31.978516C7 31.420326 7.4203264 31 7.9785156 31 z" fill="#FFFFFF" />
</svg>